HIERARCHY
ROOT Hips
{
	OFFSET -14.64140 90.27770 -84.91600
	CHANNELS 6 Xposition Yposition Zposition Zrotation Xrotation Yrotation
	JOINT Spine
	{
		OFFSET 0.00000 13.20850 -1.60436
		CHANNELS 3 Zrotation Xrotation Yrotation
		JOINT Spine1
		{
			OFFSET 0.00000 8.61716 0.00000
			CHANNELS 3 Zrotation Xrotation Yrotation
			JOINT Spine2
			{
				OFFSET 0.00000 8.61717 0.00000
				CHANNELS 3 Zrotation Xrotation Yrotation
				JOINT Spine3
				{
					OFFSET 0.00000 8.61717 0.00000
					CHANNELS 3 Zrotation Xrotation Yrotation
					JOINT Neck
					{
						OFFSET 0.00000 11.07920 1.10792
						CHANNELS 3 Zrotation Xrotation Yrotation
						JOINT Neck1
						{
							OFFSET 0.00000 7.08032 0.00000
							CHANNELS 3 Zrotation Xrotation Yrotation
							JOINT Head
							{
								OFFSET 0.00000 7.08031 0.00000
								CHANNELS 3 Zrotation Xrotation Yrotation
								End site
								{
									OFFSET 0.00000 0.00000 0.00000
								}
							}
						}
					}
					JOINT RightShoulder
					{
						OFFSET -0.01000 7.91373 5.19711
						CHANNELS 3 Zrotation Xrotation Yrotation
						JOINT RightArm
						{
							OFFSET -18.41580 0.00000 0.00000
							CHANNELS 3 Zrotation Xrotation Yrotation
							JOINT RightForeArm
							{
								OFFSET -29.11090 0.00000 0.00000
								CHANNELS 3 Zrotation Xrotation Yrotation
								JOINT RightHand
								{
									OFFSET -24.65040 0.00000 0.00000
									CHANNELS 3 Zrotation Xrotation Yrotation
									JOINT RightHandThumb1
									{
										OFFSET -5.35114 -0.85590 3.97906
										CHANNELS 3 Zrotation Xrotation Yrotation
										JOINT RightHandThumb2
										{
											OFFSET -4.52789 0.00000 0.00000
											CHANNELS 3 Zrotation Xrotation Yrotation
											JOINT RightHandThumb3
											{
												OFFSET -2.46976 0.00000 0.00000
												CHANNELS 3 Zrotation Xrotation Yrotation
												End site
												{
													OFFSET 0.00000 0.00000 0.00000
												}
											}
										}
									}
									JOINT RightHandIndex1
									{
										OFFSET -14.26970 0.00000 2.88139
										CHANNELS 3 Zrotation Xrotation Yrotation
										JOINT RightHandIndex2
										{
											OFFSET -5.48836 0.00000 0.00000
											CHANNELS 3 Zrotation Xrotation Yrotation
											JOINT RightHandIndex3
											{
												OFFSET -3.01859 0.00000 0.00000
												CHANNELS 3 Zrotation Xrotation Yrotation
												End site
												{
													OFFSET 0.00000 0.00000 0.00000
												}
											}
										}
									}
									JOINT RightHandMiddle1
									{
										OFFSET -14.26970 0.00000 -0.09147
										CHANNELS 3 Zrotation Xrotation Yrotation
										JOINT RightHandMiddle2
										{
											OFFSET -6.17441 0.00000 0.00000
											CHANNELS 3 Zrotation Xrotation Yrotation
											JOINT RightHandMiddle3
											{
												OFFSET -3.56743 0.00000 0.00000
												CHANNELS 3 Zrotation Xrotation Yrotation
												End site
												{
													OFFSET 0.00000 0.00000 0.00000
												}
											}
										}
									}
									JOINT RightHandRing1
									{
										OFFSET -12.69180 0.00000 -3.06433
										CHANNELS 3 Zrotation Xrotation Yrotation
										JOINT RightHandRing2
										{
											OFFSET -5.62556 0.00000 0.00000
											CHANNELS 3 Zrotation Xrotation Yrotation
											JOINT RightHandRing3
											{
												OFFSET -3.56744 0.00000 0.00000
												CHANNELS 3 Zrotation Xrotation Yrotation
												End site
												{
													OFFSET 0.00000 0.00000 0.00000
												}
											}
										}
									}
									JOINT RightHandPinky1
									{
										OFFSET -11.11390 0.00000 -6.03719
										CHANNELS 3 Zrotation Xrotation Yrotation
										JOINT RightHandPinky2
										{
											OFFSET -4.52789 0.00000 0.00000
											CHANNELS 3 Zrotation Xrotation Yrotation
											JOINT RightHandPinky3
											{
												OFFSET -2.46976 0.00000 0.00000
												CHANNELS 3 Zrotation Xrotation Yrotation
												End site
												{
													OFFSET 0.00000 0.00000 0.00000
												}
											}
										}
									}
								}
							}
						}
					}
					JOINT LeftShoulder
					{
						OFFSET 0.01000 7.91373 5.19711
						CHANNELS 3 Zrotation Xrotation Yrotation
						JOINT LeftArm
						{
							OFFSET 18.41580 0.00000 0.00000
							CHANNELS 3 Zrotation Xrotation Yrotation
							JOINT LeftForeArm
							{
								OFFSET 29.11090 0.00000 0.00000
								CHANNELS 3 Zrotation Xrotation Yrotation
								JOINT LeftHand
								{
									OFFSET 24.65040 0.00000 0.00000
									CHANNELS 3 Zrotation Xrotation Yrotation
									JOINT LeftHandThumb1
									{
										OFFSET 5.35114 -0.85590 3.97906
										CHANNELS 3 Zrotation Xrotation Yrotation
										JOINT LeftHandThumb2
										{
											OFFSET 4.52789 0.00000 0.00000
											CHANNELS 3 Zrotation Xrotation Yrotation
											JOINT LeftHandThumb3
											{
												OFFSET 2.46977 0.00000 0.00000
												CHANNELS 3 Zrotation Xrotation Yrotation
												End site
												{
													OFFSET 0.00000 0.00000 0.00000
												}
											}
										}
									}
									JOINT LeftHandIndex1
									{
										OFFSET 14.26970 0.00000 2.88139
										CHANNELS 3 Zrotation Xrotation Yrotation
										JOINT LeftHandIndex2
										{
											OFFSET 5.48836 0.00000 0.00000
											CHANNELS 3 Zrotation Xrotation Yrotation
											JOINT LeftHandIndex3
											{
												OFFSET 3.01859 0.00000 0.00000
												CHANNELS 3 Zrotation Xrotation Yrotation
												End site
												{
													OFFSET 0.00000 0.00000 0.00000
												}
											}
										}
									}
									JOINT LeftHandMiddle1
									{
										OFFSET 14.26970 0.00000 -0.09147
										CHANNELS 3 Zrotation Xrotation Yrotation
										JOINT LeftHandMiddle2
										{
											OFFSET 6.17440 0.00000 0.00000
											CHANNELS 3 Zrotation Xrotation Yrotation
											JOINT LeftHandMiddle3
											{
												OFFSET 3.56744 0.00000 0.00000
												CHANNELS 3 Zrotation Xrotation Yrotation
												End site
												{
													OFFSET 0.00000 0.00000 0.00000
												}
											}
										}
									}
									JOINT LeftHandRing1
									{
										OFFSET 12.69180 0.00000 -3.06433
										CHANNELS 3 Zrotation Xrotation Yrotation
										JOINT LeftHandRing2
										{
											OFFSET 5.62556 0.00000 0.00000
											CHANNELS 3 Zrotation Xrotation Yrotation
											JOINT LeftHandRing3
											{
												OFFSET 3.56744 0.00000 0.00000
												CHANNELS 3 Zrotation Xrotation Yrotation
												End site
												{
													OFFSET 0.00000 0.00000 0.00000
												}
											}
										}
									}
									JOINT LeftHandPinky1
									{
										OFFSET 11.11390 0.00000 -6.03719
										CHANNELS 3 Zrotation Xrotation Yrotation
										JOINT LeftHandPinky2
										{
											OFFSET 4.52789 0.00000 0.00000
											CHANNELS 3 Zrotation Xrotation Yrotation
											JOINT LeftHandPinky3
											{
												OFFSET 2.46976 0.00000 0.00000
												CHANNELS 3 Zrotation Xrotation Yrotation
												End site
												{
													OFFSET 0.00000 0.00000 0.00000
												}
											}
										}
									}
								}
							}
						}
					}
					JOINT pCube4
					{
						OFFSET 0.00000 10.91090 1.10792
						CHANNELS 3 Zrotation Xrotation Yrotation
						End site
						{
							OFFSET 0.00000 0.00000 0.00000
						}
					}
				}
			}
		}
	}
	JOINT RightUpLeg
	{
		OFFSET -9.98441 0.00000 0.00000
		CHANNELS 3 Zrotation Xrotation Yrotation
		JOINT RightLeg
		{
			OFFSET 0.00000 -42.11790 0.00000
			CHANNELS 3 Zrotation Xrotation Yrotation
			JOINT RightFoot
			{
				OFFSET 0.00000 -45.00020 -0.00001
				CHANNELS 3 Zrotation Xrotation Yrotation
				JOINT RightForeFoot
				{
					OFFSET 0.00000 -3.74820 0.00000
					CHANNELS 3 Zrotation Xrotation Yrotation
					JOINT RightToeBase
					{
						OFFSET 0.00000 0.06325 14.43120
						CHANNELS 3 Zrotation Xrotation Yrotation
						End site
						{
							OFFSET 0.00000 0.00000 0.00000
						}
					}
				}
			}
		}
	}
	JOINT LeftUpLeg
	{
		OFFSET 9.98441 0.00000 0.00000
		CHANNELS 3 Zrotation Xrotation Yrotation
		JOINT LeftLeg
		{
			OFFSET 0.00000 -42.11800 0.00000
			CHANNELS 3 Zrotation Xrotation Yrotation
			JOINT LeftFoot
			{
				OFFSET 0.00000 -45.00070 0.00000
				CHANNELS 3 Zrotation Xrotation Yrotation
				JOINT LeftForeFoot
				{
					OFFSET 0.00000 -3.74824 0.00000
					CHANNELS 3 Zrotation Xrotation Yrotation
					JOINT LeftToeBase
					{
						OFFSET 0.00000 0.06325 14.43110
						CHANNELS 3 Zrotation Xrotation Yrotation
						End site
						{
							OFFSET 0.00000 0.00000 0.00000
						}
					}
				}
			}
		}
	}
}
MOTION
Frames: 4
Frame Time: 0.050000
0.026215721149834045 0.009916849598850239 0.006660041711456576 -0.01759260741945265 -0.012736070647086335 0.0284144022223336 -2.2241386731014328 0.25180980745894116 -0.8080960185741266 -1.018044519203998 3.669943475652787 0.41564962473324485 -1.1843794948701571 -1.8632539339018523 -1.3384283380693403 0.14166762083370374 0.40849544836233714 -0.8581799241063097 -0.13722659855802985 12.813295298083272 0.8441537349638666 0.4567656627832385 0.5204261458893311 1.1531119996789476 0.31164373417674673 -13.853263843505768 0.1253085508284146 -3.6574313993261285 1.3714611803982335 -15.634217067206043 73.42870424475029 15.952825856713728 -0.6749550266335776 -3.7524752577878475 7.337249953434816 42.46235823167649 22.767765421591477 -0.014555992145231386 -4.996092689233696 4.50757728172604 -0.08138333889525862 -1.596625542680227 -0.028876531557707176 -0.017370052561597526 -56.273986302671304 0.01678932517920836 0.021110878583443043 -56.22960114216221 -38.759917007226434 0.018369286203507047 -0.01631372218548178 -0.020743356380203228 0.026540792903957826 0.03604141487977543 0.03116120031710599 0.045540340576079315 -0.014634716332795328 -36.68562583220269 -0.010138286844078564 0.012892421206212753 -0.030917224541241 -0.02029276661589671 -0.02430649832613811 -0.02336997109569005 0.0359607506057246 -0.028672753180923674 -19.803653061461404 -0.04838584184037853 -0.03712026887890772 0.033723235524944654 -0.009756510303513466 -0.036778123847407765 -0.012154271861410656 -0.042000677831401004 -0.012359019503265989 24.04153043083608 -0.002024458700557017 -0.04223894370416972 28.851636361806225 -0.01842578729691499 0.03784192663340631 28.854200126067497 -0.024257885443045614 0.01551660719328625 5.480190857029611 1.3542486992410003 13.834967992697642 -71.14496867985116 29.48000305210541 -6.943263750125737 -7.089930356184011 -7.749939643125213 -89.17018190768182 -9.845336750342247 -5.899033244377667 3.8467459511104036 -0.47207253178042236 0.08478701203703479 -8.083085285258424 -0.004291968337886741 -0.005359055961878657 44.55484789982643 0.01197554093299048 -0.028594385620619004 44.602012989417446 12.494934045172394 -0.04111465364478069 0.021765390426436517 0.023519121257205972 -0.014103060245414748 -0.016351172722548525 -0.0034506876194427805 -0.017313301245630817 0.035632539959430776 11.071800221000728 0.03570646883924293 -0.046293510625076334 -0.00551222120272213 0.04368109490505607 0.008910965453229704 -0.03713400344351025 0.025053110732380313 0.024242924880391974 4.762168487046955 -0.03986042902234626 -0.049805456408740775 0.04310438941826074 0.020077436576777966 0.008063737969383249 -0.04760117524765817 -0.028165273017651333 -0.03744746680814551 -5.593437120576 -0.01338536442132736 -0.045572921819522626 -6.733608269542263 -0.041913461281835776 -0.03734455983168671 -6.675292371940358 0.016836529708636954 0.049299534477777504 -0.023459129442189277 -0.0038852469246070842 0.029392055710499132 8.034408325745815 3.4670100406846402 -19.18604214659753 0.02554642295505074 10.425931569721804 -0.006612708547118023 -5.584530368797975 -15.701606160005046 3.2198923901298286 -0.02205248229278797 0.01130489567183183 0.015853444672976186 0.01907351341203816 4.672469473072683 -0.021899387108579863 12.483208254223694 -8.272360875166502 6.863130424560512 0.010173395095911633 46.40001833261872 -0.006787255848692613 -4.373349084747785 -14.779146543475182 -3.7973678087186435 0.011385766973100769 0.008501244606620202 0.04737851661430841 0.011392761764806957 -10.719721962645659 0.015325989072538689 
-0.03644761480118275 0.015883781355445156 -0.0029134770003236177 -0.0424210523403936 -0.008003067643699676 0.02789286297138667 -2.3965513126538367 0.19113723455333298 -0.8231342454262951 -1.0086881935377057 3.7278413578309317 0.37884474310895433 -1.2070413360152459 -1.971335757568296 -1.3923271694061694 -0.006087008002299964 0.39191769397492016 -0.8851321839021338 -0.15085515486344375 13.016885916163277 1.03261348353369 0.5185893093948507 0.6094077373498893 1.8820441820234166 0.2606248572989933 -13.686834819333933 0.1305779653927894 -3.7591008551409293 1.3926279017274035 -15.670856067042177 73.3097137451296 15.264193191501118 -0.8469511450163132 -3.298041719498993 7.442611236948475 42.3792368658378 22.912383997882664 -0.011053334450874752 -4.866476506819817 4.57747005933548 -0.12611711380375495 -1.6415625724540395 -0.017436465735538337 -0.015159177521620548 -56.24233472393244 -0.04511366514390243 0.01496184218081746 -56.22849323819437 -38.75705469708523 0.0467471845017241 0.030518068383981543 -0.033296497764742077 0.013140314996341683 0.02757595381936985 0.027167019855511468 0.014303066198836775 0.005242519128477916 -36.649474870994375 -0.021319030060068328 0.02094258619969645 -0.04029799534219494 0.017720204886904657 -0.02821760157584974 -0.028422198386211642 0.046148822084756874 0.041484873750345895 -19.765004257931132 -0.022435642913310877 0.0069827595609720265 -0.01328025491369879 0.015307161661464131 0.033400917361598635 0.005213276441968268 0.004821545302098982 0.010468555454919969 24.026903871786722 -0.005967974267918174 0.03520939409463034 28.88556365667311 -0.031423286851471145 0.00864522508211152 28.88805359767261 0.040587863388900414 -0.005782445469265907 5.69477258094872 1.328802019021953 13.889904452009281 -71.0073698786216 29.815284076322897 -7.2297884306455735 -7.223102351956474 -7.9248475391612985 -89.61642420328336 -8.885028589904055 -5.172506580613543 2.8969219764107694 -0.4674064613577055 0.11565107080737232 -8.139956285198885 0.010863412843517018 0.010957206049596211 44.574221918305874 -0.01527098455900016 -0.0308363899593843 44.54321484471979 12.448235635407546 -0.0010485572069699521 -0.018886488701032263 -0.03743783708180718 -0.005581249862549823 0.0008860187174503148 -0.003826223819304926 -0.008686723264307406 0.033440748096520936 11.079400725026666 0.02097523823015343 -0.009892467914696371 -0.008249901335176352 -0.039910141618433065 -0.0187706932598031 0.03058402966420127 0.007909170967207517 0.024389493646477658 4.811554649380828 -0.024756170314302613 0.038618141953605196 0.00017128418220239663 0.011684713030200279 -0.028122721518718974 0.016809024841469192 -0.000520217794187377 0.0008448995310374292 -5.576301641266755 -0.009026043791186527 0.01811439203195197 -6.763089989391689 0.01360844359897503 -0.0064224659353772804 -6.710728859684937 0.030855923626522105 -0.016832613898145034 0.010141486656237098 -0.0415955875582102 0.004578246455658307 8.009990293336191 3.520191835020875 -19.242236519635032 0.006010253267057013 10.42333705656213 0.02791572098272012 -5.669280238935789 -15.611909035483386 3.147393304249034 -0.010814315749238341 -0.03152259036626384 0.04682591286242493 0.00046704210743411795 4.696377828735571 -0.0020798819728087485 12.447429654461848 -8.190540445445418 6.841966698295888 -0.008645180232240125 46.3361170661839 0.04089916683077854 -4.32549234719878 -14.738315005151039 -3.8011645013364985 0.04525681421817418 0.031612586043004376 0.03445938576472537 -0.038090715654294616 -10.780810626411261 -0.04595067130092956 
-0.0076044017661986395 0.01848106326273984 -0.0019099469629994068 0.023629567700524715 0.04458806149861944 -0.012672991973656372 -2.5033304835306196 0.16461815735364366 -0.7680516548112257 -0.976992817138469 3.7537787822602176 0.4110147136966236 -1.2188687923250143 -1.996850214177964 -1.4520872371893523 0.004455574660631997 0.37992287150635523 -0.8792008091763088 -0.24695392457349602 13.2278203557583 1.3590819997910377 0.5616420629218325 0.6942435783164376 2.7582805110527144 0.2737071009930046 -13.642650634606362 0.20191719533635694 -3.857965923178107 1.3901479772125054 -15.726605092983398 73.21843839603183 15.275531003341879 -1.1264137936878107 -2.384311431204496 7.619554990473217 42.87806075207689 22.786704002271883 -0.10495793385153959 -4.655303606991165 4.483197339216718 -0.15506473916926253 -1.5850577858412165 -0.012742743724428546 -0.030338127944572958 -56.254253432498615 -0.0041139885225526624 0.04661430900537547 -56.23950935875734 -38.74232846436984 0.008794318736449674 -0.02349858277642336 -0.03595167882975362 -0.04425291547931099 0.04982402027495051 -0.027385562768535127 -0.00335442645241262 -0.03293727315368528 -36.68232245183659 -0.01377507782842264 0.0024138084337179434 -0.019556389517375365 -0.030441482481414994 0.011576766419088504 0.002877362528424733 0.008587184369056368 0.047312628013772215 -19.74689378801905 -0.02314877235831687 0.03926516049609857 -0.04026789204980372 0.012810928075118999 0.016291516289252586 0.02506616705921796 0.04229222335014478 0.037104918987688494 24.046661218625765 -0.0042931501201462 0.006437781558196786 28.893528784663488 0.036949976147199005 0.007405393203325485 28.82456590506229 0.0009141441963008778 0.0181030956979569 5.8539758133119575 1.3467265112604998 13.905859129556791 -70.8761918886468 30.477687898349508 -7.44464433486389 -5.99286061180089 -8.709586810248597 -90.41946037624167 -7.696029462653688 -4.382049422881002 1.5791806681952845 -0.47383400112674656 0.07917058020924583 -8.165987090708839 0.03727210063238713 -0.0050868223008968694 44.575907224291626 0.034084690492090834 0.004911306700914928 44.56349395338172 12.485505474092099 -0.02824707285113499 -0.014499824746598276 0.04843490157458765 0.04679890142543239 0.01700837261757242 -0.012541491914937457 -0.0006167263114615489 -0.006362957135095119 11.084875431427523 -0.021367226432689006 -0.04830692278913326 0.0064326446334630714 -0.007855821932502527 0.006720519386877601 0.049442642117256456 0.0006492782385112546 -0.03804363712708 4.806971101196282 -0.03068955308862368 0.04925878221710854 0.006135047440167559 0.04167410825611114 0.012378834530353591 0.005927539410380537 -0.041379026810361895 0.03237123932505296 -5.570207956727481 -0.045397759247652034 0.03317125470497555 -6.769861006339582 0.045241002247168406 -0.030245784518405715 -6.690352565086773 -0.011479282602701391 -0.02534094735530667 -0.013479214943458374 -0.043141678630948095 -0.007478350267118965 8.010438081275023 3.4778886961540385 -19.21330363387532 -0.010851515737585275 10.410926353140772 0.06419816682447761 -5.5808446286925015 -15.625659810801993 3.181275604847389 0.01244155693275968 -0.00011824317925258009 0.010197231546513799 0.02116098734682962 4.660978657611921 0.005183339846334244 12.486953294264877 -8.202036860630617 6.914237513657651 0.0332592284296886 46.382486071607985 0.04295078375934276 -4.362312495990393 -14.76496621266649 -3.7935824176730453 -0.04232236590464053 -0.01182166336693845 0.027934473487251088 0.023952282618454217 -10.762828964963335 0.026668932884616567 
-0.04919682746561952 -0.0134104342432235 0.027528256168824528 0.025016308634937673 0.0017499851467871177 -0.03440663251225561 -2.5502556245410726 0.12284488261316677 -0.8349907485965378 -1.0597100362491638 3.713096748831248 0.41926913247953645 -1.248963274053236 -1.9980047225126225 -1.438577557305683 -0.06437901619168195 0.46613669985373773 -0.8466805619371848 -0.32698400781690096 13.383764221579764 1.6773871979665003 0.6442061659789622 0.7778825829889711 3.48851002094224 0.17549278659205342 -13.527779222880028 0.3244127196968854 -3.9295122403971945 1.4423462697186236 -15.693126028536485 73.13464449022251 15.0878871596187 -1.2837642457862222 -1.604320437647721 7.647050546429193 43.359904877626285 22.791803279994138 -0.11158884490386102 -4.403601694187421 4.514888317717996 -0.0874952179037864 -1.548719662160176 0.011681337752856073 0.022020532864082443 -56.2461656532404 0.025038563646081216 -0.007554759432150347 -56.19124372201935 -38.81166595194628 -0.014669308816462109 0.037269824036427396 -0.03020160092712693 -0.029670656390604854 -0.031788229351062354 0.024775037594401795 0.019310498056561938 -0.04302357380008079 -36.667806701114095 -0.028233101372099247 0.02602736165740759 0.03185659505670241 0.043583464175273846 0.014120882087516396 -0.04405792835347856 -0.04244622729205745 0.02797672565631354 -19.740560411682306 -0.019263884802362116 -0.012775144357032133 0.010797001630101654 0.011992033751066132 -0.021185905317114687 0.025653761946048226 0.044213886070631904 0.04067785429077498 24.01873250350981 0.019832008443035624 -0.030078645144742962 28.91238770973089 -0.021133616149648864 0.009164671562780472 28.8266092400055 -0.015142337519383006 0.018580160655022174 6.039157576243258 1.4345816770972644 13.990834490278536 -70.46626954973718 30.98219041582448 -7.770530324750275 -3.369063305990471 -10.057328494116417 -91.65018083897506 -6.389855840450058 -3.675099898864244 0.3712087429159917 -0.4603695865341885 0.09286088932543551 -8.160420227375187 0.004303493417949077 -0.018918032202052987 44.54210459549724 0.0044932599088559925 0.004417083149159703 44.559724620431545 12.492129875156218 0.01353721608452382 0.015367896757387856 0.03601635416161526 -0.034641943251276286 0.049171230092006336 0.03844946752641788 1.116001498106168e-05 -0.012827568043528578 11.123509828766208 -0.03500348369509229 0.0343043638459337 -0.035464872049146216 0.03700181255771688 0.03600230493785252 -0.004879685290929052 0.0017400720402547156 0.04230787870279939 4.741250526907118 0.00978125090917211 0.013881921991836152 -0.04169580713940759 0.019641956124558494 -0.026240532875963937 -0.01911456743791431 0.04579483025833906 0.044451908289164434 -5.572934821129119 -0.02502401309033939 -0.011738513398012589 -6.689344622304999 0.00992127728289521 -0.02903047257671897 -6.699583494730594 0.01747217904875461 -0.005809347535866185 -0.02242421677835921 0.03255253839187877 0.011867568337154726 7.997307986979831 3.4520161623995507 -19.267864508746445 -0.028027794459172937 10.412307304221917 0.020841615593797783 -5.606430937150977 -15.616987420228009 3.2084875250786444 -0.027844139456250618 -0.0050501330298295954 -0.030748871190520922 -0.041483163597741395 4.668165760406909 -0.037061550972377615 12.439052856967178 -8.23518777812746 6.903167457233113 -0.009416192000010698 46.408522377089476 0.008824451307501383 -4.310566164685797 -14.720035458644617 -3.8171487449350905 0.02633068086877755 0.027068121697076463 0.02598977082631417 -0.0002790085385876984 -10.742977705885153 0.035877483945835655 
